C:\Users\israe\Dropbox\PhDWork\ExperimentalData\subject14\100\P14S100W01_filtered35.mot
nRows=11
nColumns=28

name C:\Users\israe\Dropbox\PhDWork\ExperimentalData\subject14\100\P14S100W01_filtered35.mot
datacolumns 28
datarows 11
range 1.3750000000 1.3850000000
endheader
time	ground_force_1_vx	ground_force_1_vy	ground_force_1_vz	ground_force_1_px	ground_force_1_py	ground_force_1_pz	ground_moment_1_mx	ground_moment_1_my	ground_moment_1_mz	ground_force_2_vx	ground_force_2_vy	ground_force_2_vz	ground_force_2_px	ground_force_2_py	ground_force_2_pz	ground_moment_2_mx	ground_moment_2_my	ground_moment_2_mz	ground_force_3_vx	ground_force_3_vy	ground_force_3_vz	ground_force_3_px	ground_force_3_py	ground_force_3_pz	ground_moment_3_mx	ground_moment_3_my	ground_moment_3_mz
        1.3750000000	        0.0000000000	        0.0000000000	        0.0000000000	        0.1988394910	        0.0000558755	       -0.3004071320	        0.0000000000	       -0.0000000000	        0.0000000000	       -7.7612151057	      454.8832323475	      148.7523391447	        0.2029003487	       -0.0000795827	        0.4543649445	        8.6606978066	        6.1219233983	      -10.5181673327	        0.0003381980	        0.0000000000	        0.0001227814	        0.2076431971	        0.0000770316	        1.3583900146	       -0.0003960451	       -0.0000603398	       -0.0001525125	
        1.3760000000	       -0.0000000000	        0.0000000000	        0.0000000000	        0.1988394910	        0.0000558755	       -0.3004071320	        0.0000000000	       -0.0000000000	        0.0000000000	       -7.9610208883	      443.7017216052	      145.8358287850	        0.2029003487	       -0.0000795827	        0.4543649445	        8.1365165808	        5.9574977168	      -10.1997217614	        0.0005997073	        0.0010319107	        0.0000268215	        0.2076431971	        0.0000770316	        1.3583900146	        0.0001150940	        0.0000081572	        0.0000537945	
        1.3770000000	       -0.0000000000	        0.0000000000	        0.0000000000	        0.1988394910	        0.0000558755	       -0.3004071320	        0.0000000000	       -0.0000000000	        0.0000000000	       -8.0988582291	      432.3874979110	      142.7596317895	        0.2029003487	       -0.0000795827	        0.4543649445	        7.6052045201	        5.7832000313	       -9.8828113164	        0.0009296464	        0.0044843632	       -0.0001170481	        0.2076431971	        0.0000770316	        1.3583900146	        0.0008576052	        0.0001083310	        0.0003528106	
        1.3780000000	       -0.0000000000	        0.0000000000	        0.0000000000	        0.1988394910	        0.0000558755	       -0.3004071320	        0.0000000000	       -0.0000000000	        0.0000000000	       -8.1775283119	      420.9800725702	      139.5255435913	        0.2029003487	       -0.0000795827	        0.4543649445	        7.0683762179	        5.5995086639	       -9.5684261975	        0.0013299437	        0.0091572638	       -0.0003182240	        0.2076431971	        0.0000770316	        1.3583900146	        0.0018724619	        0.0002459281	        0.0007608150	
        1.3790000000	       -0.0000000000	        0.0000000000	        0.0000000000	        0.1988394910	        0.0000558755	       -0.3004071320	        0.0000000000	       -0.0000000000	        0.0000000000	       -8.2013122188	      409.5215398487	      136.1382826453	        0.2029003487	       -0.0000795827	        0.4543649445	        6.5281522273	        5.4070753435	       -9.2575621437	        0.0017969435	        0.0151968970	       -0.0005852595	        0.2076431971	        0.0000770316	        1.3583900146	        0.0031948851	        0.0004259598	        0.0012917298	
        1.3800000000	       -0.0000000000	        0.0000000000	        0.0000000000	        0.1988394910	        0.0000558755	       -0.3004071320	        0.0000000000	       -0.0000000000	        0.0000000000	       -8.1755986965	      398.0545766119	      132.6046320690	        0.2029003487	       -0.0000795827	        0.4543649445	        5.9872567722	        5.2065179187	       -8.9512588363	        0.0023190987	        0.0226925887	       -0.0009246755	        0.2076431971	        0.0000770316	        1.3583900146	        0.0048483680	        0.0006518908	        0.0019547173	
        1.3810000000	       -0.0000000000	        0.0000000000	        0.0000000000	        0.1988394910	        0.0000558755	       -0.3004071320	        0.0000000000	       -0.0000000000	        0.0000000000	       -8.1064539560	      386.6218886305	      128.9314452248	        0.2029003487	       -0.0000795827	        0.4543649445	        5.4488787445	        4.9985057195	       -8.6504378219	        0.0028743021	        0.0316414899	       -0.0013393958	        0.2076431971	        0.0000770316	        1.3583900146	        0.0068369533	        0.0009245879	        0.0027510813	
        1.3820000000	       -0.0000000000	        0.0000000000	        0.0000000000	        0.1988394910	        0.0000558755	       -0.3004071320	        0.0000000000	       -0.0000000000	        0.0000000000	       -8.0002480655	      375.2660906466	      125.1253283113	        0.2029003487	       -0.0000795827	        0.4543649445	        4.9164872422	        4.7839522770	       -8.3557269357	        0.0034269275	        0.0419051989	       -0.0018267741	        0.2076431971	        0.0000770316	        1.3583900146	        0.0091356509	        0.0012410091	        0.0036704251	
        1.3830000000	       -0.0000000000	        0.0000000000	        0.0000000000	        0.1988394910	        0.0000558755	       -0.3004071320	        0.0000000000	       -0.0000000000	        0.0000000000	       -7.8638845592	      364.0300283590	      121.1932606849	        0.2029003487	       -0.0000795827	        0.4543649445	        4.3935033400	        4.5641290808	       -8.0674446911	        0.0039247193	        0.0531583646	       -0.0023762014	        0.2076431971	        0.0000770316	        1.3583900146	        0.0116790005	        0.0015926341	        0.0046860728	
        1.3840000000	       -0.0000000000	        0.0000000000	        0.0000000000	        0.1988394910	        0.0000558755	       -0.3004071320	        0.0000000000	       -0.0000000000	        0.0000000000	       -7.7053436501	      352.9563978569	      117.1430250178	        0.2029003487	       -0.0000795827	        0.4543649445	        3.8829524621	        4.3405872872	       -7.7857800411	        0.0042957454	        0.0648302210	       -0.0029663155	        0.2076431971	        0.0000770316	        1.3583900146	        0.0143479555	        0.0019636578	        0.0057498250	
        1.3850000000	       -0.0000000000	        0.0000000000	        0.0000000000	        0.1988394910	        0.0000558755	       -0.3004071320	        0.0000000000	       -0.0000000000	        0.0000000000	       -7.5334051351	      342.0856487938	      112.9837841059	        0.2029003487	       -0.0000795827	        0.4543649445	        3.3876057124	        4.1150089745	       -7.5109635696	        0.0044457238	        0.0760411044	       -0.0035618828	        0.2076431971	        0.0000770316	        1.3583900146	        0.0169555067	        0.0023290009	        0.0067862196	
